<svg xmlns="http://www.w3.org/2000/svg" width="128.5" height="128.54" viewBox="0 0 128.5 128.54"><path d="M133.8,94h0v-.9h0l-22-48.4V38.4h.1a4.268,4.268,0,0,0,4.3-4.3v-.3a4.206,4.206,0,0,0-3.6-4.2L76.2,23.7V20A8.82,8.82,0,0,0,63,8.3a8.6,8.6,0,0,0,0,11.6v3.5L26.6,29.5A4.206,4.206,0,0,0,23,33.7V34a4.268,4.268,0,0,0,4.3,4.3h.1v6.3L5.4,93h0v.8h0V94c.1,8.6,10.7,15.2,24.3,15.2S53.8,102.5,54,94v-.2h0V93h0L32,44.6V38.3H63V83.5a4.288,4.288,0,0,0-2.2,3.8V118l-13.2,4.1a6.543,6.543,0,0,0-4.6,6.2v3.4a2.112,2.112,0,0,0,2.1,2.1H94a2.112,2.112,0,0,0,2.1-2.1h0v-3.4a6.332,6.332,0,0,0-4.6-6.2L78.3,118V87.3a4.5,4.5,0,0,0-2.2-3.8V38.3h31.3v6.3L85.4,93h0v.8h0V94c.1,8.6,10.7,15.2,24.3,15.2s23.9-6.5,24.1-15.2ZM29.6,50.2l19,41.7h-38Zm0,55c-9.6,0-17.9-4-19.7-9.2H49.4c-1.9,5.2-10.2,9.2-19.8,9.2ZM74.1,87.3v30.1H65V87.3a.1.1,0,0,1,.1-.1H74C74.1,87.2,74.1,87.2,74.1,87.3ZM67.2,83V22.5a9.354,9.354,0,0,0,4.7,0V83ZM69.6,9.5a4.588,4.588,0,0,1,4.6,4.6,4.526,4.526,0,0,1-4.6,4.6A4.588,4.588,0,0,1,65,14.1,4.526,4.526,0,0,1,69.6,9.5ZM27.4,34.2a.1.1,0,0,1-.1-.1v-.3c0-.1,0-.1.1-.1L63,27.6v6.6Zm64.5,94.1v1.3H47.2v-1.3a2.565,2.565,0,0,1,1.7-2.3l14.3-4.5H75.9L90.2,126a2.463,2.463,0,0,1,1.7,2.3ZM76.1,27.8l35.7,5.8a.1.1,0,0,1,.1.1V34a.1.1,0,0,1-.1.1H76.1Zm33.4,22.4,19,41.7h-38Zm0,55c-9.6,0-17.9-4-19.7-9.2h39.5c-1.9,5.2-10.2,9.2-19.8,9.2Z" transform="translate(-5.35 -5.31)" fill="#fff" stroke="#fff" stroke-width="0.1"/></svg>