<svg xmlns="http://www.w3.org/2000/svg" viewBox="0 0 161.5 58.04"><defs><style>.a{fill:#faa61a;}.b{fill:#123f6d;}</style></defs><g transform="translate(0)"><path class="a" d="M35.6,29.924c-.622-2.124-3.211-4.24-8.6-3.784-4.2.357-10.222.888-15.383,1.352L11.218,21.5A2.151,2.151,0,0,1,12.3,19.477l12.786-7.434c4.779-2.78,4.115-6.248,3.8-7.252C28.443,3.148,26.22.111,21.009.377,16.752.6,8.165,1.381,3.427,1.829A3.541,3.541,0,0,0,.207,5.338L0,25.468a4.111,4.111,0,0,0,1.319,3.045,4.034,4.034,0,0,0,3.136,1.045c1.552-.149,3.6-.34,5.883-.548l.8,11.774A4.059,4.059,0,0,0,15.2,44.577a4.135,4.135,0,0,0,1.742-.39c3.858-1.825,10.131-5.053,14.33-7.277C34.633,35.134,36.326,32.388,35.6,29.924ZM4.323,28.173a2.641,2.641,0,0,1-2.058-.689,2.705,2.705,0,0,1-.871-2.008l.2-20.121A2.162,2.162,0,0,1,3.56,3.214c4.729-.448,13.292-1.228,17.516-1.444.2-.008.4-.017.589-.017,4.854,0,5.833,3.253,5.875,3.4a.191.191,0,0,0,.025.075c.307.954.606,3.419-3.178,5.617L11.6,18.282A3.555,3.555,0,0,0,9.832,21.61l.415,6.024C7.949,27.833,5.883,28.023,4.323,28.173Zm26.3,7.5c-4.182,2.215-10.438,5.426-14.28,7.244a2.676,2.676,0,0,1-3.817-2.24l-.8-11.8c5.161-.465,11.2-1,15.4-1.352,3.75-.315,6.555.78,7.144,2.788C34.8,32.122,33.372,34.222,30.626,35.674Z" transform="translate(0 -0.061)"/><g transform="translate(43.486)"><g transform="translate(0 52.572)"><path class="b" d="M52.41,64.923a.065.065,0,0,1,.025-.058.572.572,0,0,1,.066-.025.225.225,0,0,1,.075,0h.058a.05.05,0,0,1,.05.025.105.105,0,0,1,.008.05v.05c0,.017.017.025.041.025a.062.062,0,0,0,.041-.008.182.182,0,0,1,.041-.025,1.408,1.408,0,0,1,.34-.124,1.618,1.618,0,0,1,.357-.041,1.463,1.463,0,0,1,.589.116,1.219,1.219,0,0,1,.44.315,1.475,1.475,0,0,1,.274.473,1.688,1.688,0,0,1,.091.589,1.879,1.879,0,0,1-.091.573,1.512,1.512,0,0,1-.266.5,1.443,1.443,0,0,1-.423.348,1.266,1.266,0,0,1-.573.133,1.582,1.582,0,0,1-.266-.025,1.047,1.047,0,0,1-.257-.075.14.14,0,0,1-.041-.017c-.025-.008-.041-.025-.066-.033s-.05-.025-.075-.033a.146.146,0,0,0-.05-.008c-.017,0-.033.008-.033.025s-.008.033-.008.05v1.245a.056.056,0,0,1-.033.058.242.242,0,0,1-.075.017h-.166a.066.066,0,0,1-.075-.075V64.923Zm.431,2.473a.634.634,0,0,0,.191.124,1.133,1.133,0,0,0,.241.058c.083.008.158.017.232.017a.981.981,0,0,0,.481-.108,1.013,1.013,0,0,0,.332-.29,1.219,1.219,0,0,0,.191-.407,1.865,1.865,0,0,0,.058-.481,1.822,1.822,0,0,0-.066-.481,1.059,1.059,0,0,0-.2-.4.993.993,0,0,0-.34-.274,1.083,1.083,0,0,0-.481-.1,2.072,2.072,0,0,0-.207.017,1.05,1.05,0,0,0-.232.05.562.562,0,0,0-.191.116.269.269,0,0,0-.075.2v1.751A.263.263,0,0,0,52.841,67.4Z" transform="translate(-52.41 -63.603)"/><path class="b" d="M58.29,63.712a.2.2,0,0,1,.232-.232.239.239,0,0,1,.191.058.292.292,0,0,1,.05.191.308.308,0,0,1-.05.191.239.239,0,0,1-.191.058c-.1,0-.166-.025-.191-.066A.4.4,0,0,1,58.29,63.712Zm.058.987a.066.066,0,0,1,.075-.075h.2a.09.09,0,0,1,.058.025.075.075,0,0,1,.025.058V67.5a.085.085,0,0,1-.083.083h-.2a.066.066,0,0,1-.075-.075Z" transform="translate(-53.411 -63.38)"/><path class="b" d="M61.93,64.935A.066.066,0,0,1,62,64.86h.141c.033,0,.058.008.058.033a.183.183,0,0,1,.008.066.162.162,0,0,0,.008.066c0,.025.017.033.05.033a.03.03,0,0,0,.025-.008c.008,0,.017-.008.025-.008a1.294,1.294,0,0,1,.415-.141,2.549,2.549,0,0,1,.44-.041q.112,0,.124.075v.174c0,.066-.033.1-.091.1a.866.866,0,0,1-.232-.033,1.473,1.473,0,0,0-.249-.033.481.481,0,0,0-.332.1.412.412,0,0,0-.108.324v2.149a.085.085,0,0,1-.083.083H62a.066.066,0,0,1-.075-.075V64.935Z" transform="translate(-54.031 -63.615)"/><path class="b" d="M65.94,66.335a1.967,1.967,0,0,1,.083-.581,1.455,1.455,0,0,1,.257-.49,1.2,1.2,0,0,1,.987-.465,1.307,1.307,0,0,1,.481.091,1,1,0,0,1,.373.257,1.122,1.122,0,0,1,.249.39,1.3,1.3,0,0,1,.091.473v.149a.066.066,0,0,1-.075.075H66.313a4.848,4.848,0,0,0,.033.49.939.939,0,0,0,.174.448.8.8,0,0,0,.39.315,1.341,1.341,0,0,0,1.2-.116.506.506,0,0,0,.05-.033.326.326,0,0,1,.05-.017q.05,0,.05.075V67.5a.184.184,0,0,1-.116.158,1.106,1.106,0,0,1-.266.1,1.87,1.87,0,0,1-.3.05c-.1.008-.174.017-.207.017a1.519,1.519,0,0,1-.606-.108,1.307,1.307,0,0,1-.448-.307,1.355,1.355,0,0,1-.282-.473A1.75,1.75,0,0,1,65.94,66.335Zm2.157-.34a1.293,1.293,0,0,0-.058-.365.753.753,0,0,0-.166-.3.8.8,0,0,0-.266-.2.844.844,0,0,0-.365-.075.87.87,0,0,0-.365.075.857.857,0,0,0-.282.207,1.02,1.02,0,0,0-.191.3,1.328,1.328,0,0,0-.091.357Z" transform="translate(-54.714 -63.605)"/><path class="b" d="M71.61,67.457c0-.041.017-.066.05-.066a.062.062,0,0,1,.041.008c.017.008.025.017.041.017a1.338,1.338,0,0,0,.282.124.813.813,0,0,0,.3.041.759.759,0,0,0,.415-.116.419.419,0,0,0,.174-.373.385.385,0,0,0-.033-.174.421.421,0,0,0-.075-.133.485.485,0,0,0-.116-.108c-.041-.033-.091-.066-.141-.1l-.407-.274c-.075-.05-.133-.091-.2-.141a1.378,1.378,0,0,1-.158-.149.644.644,0,0,1-.1-.183.7.7,0,0,1-.033-.241.857.857,0,0,1,.066-.34.583.583,0,0,1,.183-.241.728.728,0,0,1,.274-.149,1.164,1.164,0,0,1,.34-.05c.033,0,.091.008.166.017a1.163,1.163,0,0,1,.232.05,1.2,1.2,0,0,1,.207.083.151.151,0,0,1,.091.133V65.2a.062.062,0,0,1-.008.041.046.046,0,0,1-.041.025.132.132,0,0,1-.066-.025.463.463,0,0,1-.066-.041,1.557,1.557,0,0,0-.249-.1.935.935,0,0,0-.266-.041.646.646,0,0,0-.382.108.4.4,0,0,0-.166.348.418.418,0,0,0,.025.158.348.348,0,0,0,.075.116.571.571,0,0,0,.108.091c.041.033.083.058.133.091l.5.34a2.074,2.074,0,0,1,.2.149.888.888,0,0,1,.149.158.509.509,0,0,1,.091.191,1.052,1.052,0,0,1,.033.241.77.77,0,0,1-.075.348.713.713,0,0,1-.191.249.877.877,0,0,1-.29.149,1.179,1.179,0,0,1-.348.05,1.966,1.966,0,0,1-.357-.041.972.972,0,0,1-.34-.133.206.206,0,0,1-.058-.041c-.008-.008-.008-.033-.008-.066v-.108Z" transform="translate(-55.679 -63.607)"/><path class="b" d="M76.48,68.064a.284.284,0,0,1,.315-.324.33.33,0,0,1,.307.133.627.627,0,0,1,.083.34.916.916,0,0,1-.083.39,1.316,1.316,0,0,1-.216.34c-.033.033-.058.066-.091.1a.152.152,0,0,1-.124.041H76.6c-.058,0-.083-.025-.083-.075a.152.152,0,0,1,.05-.083,1.042,1.042,0,0,0,.108-.133.757.757,0,0,0,.108-.183.606.606,0,0,0,.05-.249.473.473,0,0,1-.257-.058A.273.273,0,0,1,76.48,68.064Z" transform="translate(-56.508 -64.106)"/><path class="b" d="M83.96,66.36a2.043,2.043,0,0,1,.091-.6,1.434,1.434,0,0,1,.266-.5,1.331,1.331,0,0,1,.431-.34,1.374,1.374,0,0,1,.6-.124,1.559,1.559,0,0,1,.357.041,2.941,2.941,0,0,1,.34.124.135.135,0,0,0,.05.025.162.162,0,0,0,.058.008.022.022,0,0,0,.025-.025v-.05a.105.105,0,0,1,.008-.05c.008-.017.025-.025.058-.025h.149a.066.066,0,0,1,.075.075v2.929c0,.091,0,.183-.008.274a1.113,1.113,0,0,1-.041.249,1.323,1.323,0,0,1-.1.224.619.619,0,0,1-.191.2,1.357,1.357,0,0,1-.456.216,2.039,2.039,0,0,1-.5.058,3.219,3.219,0,0,1-.473-.041,1.773,1.773,0,0,1-.448-.141.239.239,0,0,1-.083-.05c-.017-.017-.033-.033-.033-.05a.141.141,0,0,1-.008-.058v-.091a.154.154,0,0,1,.017-.058.05.05,0,0,1,.05-.025.134.134,0,0,1,.075.025.291.291,0,0,0,.066.041,2.257,2.257,0,0,0,.39.158,1.339,1.339,0,0,0,.407.058,1.758,1.758,0,0,0,.365-.041.964.964,0,0,0,.315-.124.749.749,0,0,0,.224-.232.688.688,0,0,0,.083-.357v-.357a.105.105,0,0,0-.008-.05c0-.017-.017-.025-.033-.025a.03.03,0,0,0-.025.008c-.008,0-.017.008-.025.008a1.919,1.919,0,0,1-.348.141,1.286,1.286,0,0,1-.373.041,1.382,1.382,0,0,1-.573-.116,1.231,1.231,0,0,1-.423-.315,1.458,1.458,0,0,1-.266-.473A2.4,2.4,0,0,1,83.96,66.36Zm.357-.017a1.853,1.853,0,0,0,.066.5,1.083,1.083,0,0,0,1.037.747c.058,0,.124-.008.207-.017a1.059,1.059,0,0,0,.232-.058.562.562,0,0,0,.191-.116.27.27,0,0,0,.083-.191V65.514a.4.4,0,0,0-.066-.232.457.457,0,0,0-.166-.141.637.637,0,0,0-.232-.066c-.083-.008-.166-.017-.241-.017a.993.993,0,0,0-.49.108,1.055,1.055,0,0,0-.539.7A1.3,1.3,0,0,0,84.317,66.343Z" transform="translate(-57.782 -63.605)"/><path class="b" d="M89.92,66.353a2.33,2.33,0,0,1,.075-.606,1.556,1.556,0,0,1,.224-.49,1.038,1.038,0,0,1,.407-.324,1.335,1.335,0,0,1,.606-.124,1.447,1.447,0,0,1,.6.116.982.982,0,0,1,.407.324,1.3,1.3,0,0,1,.232.481,2.265,2.265,0,0,1,.075.6,2.842,2.842,0,0,1-.066.614,1.366,1.366,0,0,1-.224.5,1.058,1.058,0,0,1-.407.332,1.372,1.372,0,0,1-.614.124,1.488,1.488,0,0,1-.606-.116,1.053,1.053,0,0,1-.407-.324,1.406,1.406,0,0,1-.232-.49A2.962,2.962,0,0,1,89.92,66.353Zm.348-.008a2.155,2.155,0,0,0,.05.465,1.307,1.307,0,0,0,.158.415.858.858,0,0,0,.3.3.9.9,0,0,0,.465.116.865.865,0,0,0,.456-.108.772.772,0,0,0,.29-.3,1.307,1.307,0,0,0,.158-.415,2.211,2.211,0,0,0,.05-.465,3.033,3.033,0,0,0-.041-.473A1.591,1.591,0,0,0,92,65.457a.835.835,0,0,0-.29-.3.907.907,0,0,0-.473-.116.9.9,0,0,0-.465.116.858.858,0,0,0-.3.3,1.307,1.307,0,0,0-.158.415A2.29,2.29,0,0,0,90.268,66.345Z" transform="translate(-58.797 -63.607)"/><path class="b" d="M96.02,64.923a.065.065,0,0,1,.025-.058c.017-.008.041-.017.058-.025a.225.225,0,0,1,.075,0,.136.136,0,0,0,.058,0c.033,0,.05.008.058.025a.105.105,0,0,1,.008.05.105.105,0,0,0,.008.05c0,.017.017.025.041.025a.154.154,0,0,0,.058-.017.405.405,0,0,1,.058-.025,1.832,1.832,0,0,1,.73-.158,1.586,1.586,0,0,1,.431.058.825.825,0,0,1,.373.207.842.842,0,0,1,.241.423,2.412,2.412,0,0,1,.05.5V67.7a.056.056,0,0,1-.033.058.242.242,0,0,1-.075.017H98.02a.066.066,0,0,1-.075-.075V65.894a.953.953,0,0,0-.183-.631.75.75,0,0,0-.614-.224c-.058,0-.133.008-.224.017a.782.782,0,0,0-.249.058.562.562,0,0,0-.207.116.246.246,0,0,0-.083.2V67.7a.056.056,0,0,1-.033.058.242.242,0,0,1-.075.017h-.166a.066.066,0,0,1-.075-.075v-2.78Z" transform="translate(-59.835 -63.603)"/><path class="b" d="M101.6,66.36a2.127,2.127,0,0,1,.091-.622,1.325,1.325,0,0,1,.274-.5,1.243,1.243,0,0,1,.448-.324,1.588,1.588,0,0,1,.614-.116c.041,0,.108,0,.207.008s.2.025.3.041a1.326,1.326,0,0,1,.274.091.183.183,0,0,1,.116.158v.1c0,.05-.025.075-.066.075a.105.105,0,0,1-.05-.008.182.182,0,0,1-.041-.025,1.919,1.919,0,0,0-.348-.141,1.214,1.214,0,0,0-.365-.05,1.1,1.1,0,0,0-.49.1.97.97,0,0,0-.348.282,1.163,1.163,0,0,0-.2.407,1.934,1.934,0,0,0-.066.49,1.853,1.853,0,0,0,.066.5,1.073,1.073,0,0,0,.207.4.941.941,0,0,0,.357.257,1.175,1.175,0,0,0,.506.091,1.444,1.444,0,0,0,.373-.05,1.847,1.847,0,0,0,.357-.133c.008,0,.017-.008.033-.017a.05.05,0,0,1,.033-.008.046.046,0,0,1,.041.025.118.118,0,0,1,.017.05v.108q0,.075-.1.124a1.252,1.252,0,0,1-.232.083c-.091.017-.174.033-.257.041a1.636,1.636,0,0,1-.174.008v.158a.4.4,0,0,1,.3.423.376.376,0,0,1-.058.224.512.512,0,0,1-.149.149.774.774,0,0,1-.207.083,1.03,1.03,0,0,1-.224.025c-.05,0-.075-.025-.075-.066v-.116a.082.082,0,0,1,.025-.066.281.281,0,0,1,.066-.025c.041,0,.083-.008.124-.008a.411.411,0,0,0,.108-.025.146.146,0,0,0,.075-.066.283.283,0,0,0,.033-.133.18.18,0,0,0-.041-.133.172.172,0,0,0-.083-.05c-.033-.008-.058-.017-.083-.025s-.041-.033-.041-.075V67.8a1.715,1.715,0,0,1-.481-.083,1.013,1.013,0,0,1-.407-.266,1.278,1.278,0,0,1-.332-.514A1.2,1.2,0,0,1,101.6,66.36Z" transform="translate(-60.785 -63.605)"/><path class="b" d="M106.98,67.069a.677.677,0,0,1,.075-.332.714.714,0,0,1,.207-.241,1.609,1.609,0,0,1,.282-.174c.108-.05.207-.091.315-.133l.73-.257a.5.5,0,0,0,.116-.058.229.229,0,0,0,.058-.075.309.309,0,0,0,.017-.1v-.133a.434.434,0,0,0-.174-.407.815.815,0,0,0-.448-.108,1.5,1.5,0,0,0-.448.066,1.979,1.979,0,0,0-.407.191c-.008.008-.025.017-.033.025a.05.05,0,0,1-.033.008.046.046,0,0,1-.041-.025.12.12,0,0,1-.017-.058c0-.025-.008-.05,0-.066v-.05c0-.05.041-.1.133-.141a1.411,1.411,0,0,1,.315-.1,2.545,2.545,0,0,1,.348-.058,2.005,2.005,0,0,1,.232-.025,2.037,2.037,0,0,1,.4.033.615.615,0,0,1,.34.191.528.528,0,0,1,.158.266,1.161,1.161,0,0,1,.033.307v2.116a.05.05,0,0,1-.025.05.4.4,0,0,1-.058.025c-.025,0-.05.008-.066,0h-.058q-.062,0-.075-.025a.118.118,0,0,1-.017-.05v-.05c0-.017-.017-.025-.041-.025-.008,0-.033.008-.066.017a.128.128,0,0,0-.058.025c-.124.05-.241.083-.348.116a1.3,1.3,0,0,1-.365.041,1.757,1.757,0,0,1-.365-.041.861.861,0,0,1-.307-.133.666.666,0,0,1-.216-.241A.713.713,0,0,1,106.98,67.069Zm.357,0a.421.421,0,0,0,.058.232.714.714,0,0,0,.149.166.586.586,0,0,0,.207.091,1.121,1.121,0,0,0,.232.033c.058,0,.133,0,.224-.008a1.5,1.5,0,0,0,.266-.05.934.934,0,0,0,.224-.108.252.252,0,0,0,.091-.2l-.008-1.079-.664.224c-.083.033-.174.066-.266.1a1.185,1.185,0,0,0-.249.133.667.667,0,0,0-.183.191A.386.386,0,0,0,107.337,67.069Z" transform="translate(-61.701 -63.609)"/><path class="b" d="M112.65,63.435a.066.066,0,0,1,.075-.075h.2a.09.09,0,0,1,.058.025.075.075,0,0,1,.025.058v4.033a.085.085,0,0,1-.083.083h-.2a.066.066,0,0,1-.075-.075Z" transform="translate(-62.667 -63.36)"/><path class="b" d="M115.73,64.942a.056.056,0,0,1,.033-.058l.075-.025a.278.278,0,0,1,.083,0h.066a.256.256,0,0,1,.091.017.142.142,0,0,1,.05.075L117,67.431l.83-2.448a.318.318,0,0,1,.041-.091c.008-.017.041-.025.091-.025h.116a.12.12,0,0,1,.058.017.05.05,0,0,1,.025.05.353.353,0,0,1-.017.091l-.954,2.7a.359.359,0,0,1-.033.091c-.008.025-.041.033-.083.033h-.224a.092.092,0,0,1-.083-.041c-.008-.033-.025-.058-.033-.091l-.979-2.688a.141.141,0,0,0-.017-.041A.181.181,0,0,0,115.73,64.942Z" transform="translate(-63.191 -63.615)"/><path class="b" d="M121.01,66.335a1.967,1.967,0,0,1,.083-.581,1.454,1.454,0,0,1,.257-.49,1.189,1.189,0,0,1,.415-.34,1.264,1.264,0,0,1,.573-.124,1.307,1.307,0,0,1,.481.091,1.107,1.107,0,0,1,.382.257,1.122,1.122,0,0,1,.249.39,1.3,1.3,0,0,1,.091.473v.149a.066.066,0,0,1-.075.075h-2.074a4.848,4.848,0,0,0,.033.49.939.939,0,0,0,.174.448.8.8,0,0,0,.39.315,1.341,1.341,0,0,0,1.2-.116.506.506,0,0,0,.05-.033.326.326,0,0,1,.05-.017q.05,0,.05.075V67.5a.184.184,0,0,1-.116.158,1.106,1.106,0,0,1-.266.1,1.87,1.87,0,0,1-.3.05c-.1.008-.166.017-.207.017a1.547,1.547,0,0,1-.606-.108,1.307,1.307,0,0,1-.448-.307,1.355,1.355,0,0,1-.282-.473A1.575,1.575,0,0,1,121.01,66.335Zm2.157-.34a1.293,1.293,0,0,0-.058-.365.87.87,0,0,0-.166-.3.8.8,0,0,0-.266-.2.844.844,0,0,0-.365-.075.87.87,0,0,0-.365.075.857.857,0,0,0-.282.207,1.02,1.02,0,0,0-.191.3,1.328,1.328,0,0,0-.091.357Z" transform="translate(-64.09 -63.605)"/><path class="b" d="M126.68,67.457c0-.041.017-.066.05-.066a.062.062,0,0,1,.041.008c.017.008.025.017.041.017a1.338,1.338,0,0,0,.282.124.813.813,0,0,0,.3.041.759.759,0,0,0,.415-.116.419.419,0,0,0,.174-.373.385.385,0,0,0-.033-.174.421.421,0,0,0-.075-.133.485.485,0,0,0-.116-.108c-.041-.033-.091-.066-.141-.1l-.407-.274c-.075-.05-.133-.091-.2-.141s-.108-.1-.158-.149a.644.644,0,0,1-.1-.183.7.7,0,0,1-.033-.241.857.857,0,0,1,.066-.34.582.582,0,0,1,.183-.241.728.728,0,0,1,.274-.149,1.164,1.164,0,0,1,.34-.05c.033,0,.091.008.166.017a1.163,1.163,0,0,1,.232.05,1.2,1.2,0,0,1,.207.083.151.151,0,0,1,.091.133V65.2a.062.062,0,0,1-.008.041.046.046,0,0,1-.041.025.133.133,0,0,1-.066-.025.463.463,0,0,1-.066-.041,1.557,1.557,0,0,0-.249-.1.935.935,0,0,0-.266-.041.645.645,0,0,0-.382.108.4.4,0,0,0-.166.348.418.418,0,0,0,.025.158.348.348,0,0,0,.075.116.572.572,0,0,0,.108.091c.041.033.083.058.133.091l.5.34a2.074,2.074,0,0,1,.2.149.887.887,0,0,1,.149.158.509.509,0,0,1,.091.191.7.7,0,0,1,.033.241.77.77,0,0,1-.075.348.828.828,0,0,1-.191.249.877.877,0,0,1-.29.149,1.179,1.179,0,0,1-.348.05,1.966,1.966,0,0,1-.357-.041.972.972,0,0,1-.34-.133.206.206,0,0,1-.058-.041c-.008-.008-.008-.033-.008-.066v-.108Z" transform="translate(-65.055 -63.607)"/><path class="b" d="M135.24,66.486a1.017,1.017,0,0,1,.241-.68,1.26,1.26,0,0,1,.622-.382c-.066-.075-.133-.141-.2-.216s-.124-.141-.183-.216a1.361,1.361,0,0,1-.133-.241.789.789,0,0,1-.05-.29.774.774,0,0,1,.083-.373.817.817,0,0,1,.514-.44,1.229,1.229,0,0,1,.747,0,.886.886,0,0,1,.3.174.832.832,0,0,1,.2.274.87.87,0,0,1,.075.365.976.976,0,0,1-.066.357.987.987,0,0,1-.183.274,1.187,1.187,0,0,1-.274.207,2.814,2.814,0,0,1-.324.149l1.278,1.369a.682.682,0,0,0,.2-.348,2.069,2.069,0,0,0,.033-.407.085.085,0,0,1,.083-.083h.2a.05.05,0,0,1,.05.025l.025.05a.179.179,0,0,1,0,.066.136.136,0,0,0,0,.058,1.249,1.249,0,0,1-.025.241,1.087,1.087,0,0,1-.075.232,1.12,1.12,0,0,1-.124.216.66.66,0,0,1-.174.166.894.894,0,0,0,.091.091c.041.041.091.091.133.141s.083.1.124.141a.2.2,0,0,1,.05.091.061.061,0,0,1-.05.058.42.42,0,0,1-.108.017h-.207a.149.149,0,0,1-.058-.041,1.178,1.178,0,0,1-.091-.1c-.033-.033-.058-.075-.091-.108a.622.622,0,0,0-.058-.066,1.4,1.4,0,0,1-.556.274,2.25,2.25,0,0,1-.622.083,2.132,2.132,0,0,1-.514-.066,1.385,1.385,0,0,1-.448-.207,1.089,1.089,0,0,1-.315-.357A1.027,1.027,0,0,1,135.24,66.486Zm.365-.041a.788.788,0,0,0,.1.4.813.813,0,0,0,.257.274,1.279,1.279,0,0,0,.357.166,1.653,1.653,0,0,0,.407.05,2.3,2.3,0,0,0,.473-.058,1.453,1.453,0,0,0,.431-.2l-1.352-1.485a1.279,1.279,0,0,0-.481.315A.768.768,0,0,0,135.605,66.444Zm.29-2.016a.666.666,0,0,0,.05.249.762.762,0,0,0,.133.224,2.021,2.021,0,0,0,.166.207c.058.066.116.133.174.191a2.5,2.5,0,0,0,.257-.133,1.1,1.1,0,0,0,.216-.174.663.663,0,0,0,.149-.224.775.775,0,0,0,.05-.282.629.629,0,0,0-.166-.44.575.575,0,0,0-.44-.174.6.6,0,0,0-.431.158A.482.482,0,0,0,135.9,64.428Z" transform="translate(-66.513 -63.399)"/><path class="b" d="M145.61,67.069a.677.677,0,0,1,.075-.332.714.714,0,0,1,.207-.241,1.608,1.608,0,0,1,.282-.174c.108-.05.207-.091.315-.133l.73-.257a.5.5,0,0,0,.116-.058.229.229,0,0,0,.058-.075.31.31,0,0,0,.017-.1v-.133a.434.434,0,0,0-.174-.407.815.815,0,0,0-.448-.108,1.5,1.5,0,0,0-.448.066,1.98,1.98,0,0,0-.407.191c-.008.008-.025.017-.033.025a.05.05,0,0,1-.033.008.046.046,0,0,1-.042-.025.12.12,0,0,1-.017-.058c0-.025-.008-.05,0-.066v-.05c0-.05.041-.1.133-.141a1.411,1.411,0,0,1,.315-.1,2.544,2.544,0,0,1,.348-.058,2,2,0,0,1,.232-.025,2.036,2.036,0,0,1,.4.033.615.615,0,0,1,.34.191.528.528,0,0,1,.158.266,1.162,1.162,0,0,1,.033.307v2.116a.05.05,0,0,1-.025.05.4.4,0,0,1-.058.025c-.025,0-.05.008-.066,0s-.042,0-.058,0q-.062,0-.075-.025a.118.118,0,0,1-.017-.05v-.05c0-.017-.017-.025-.042-.025-.008,0-.033.008-.066.017a.128.128,0,0,0-.058.025c-.124.05-.241.083-.348.116a1.3,1.3,0,0,1-.365.041,1.758,1.758,0,0,1-.365-.041.861.861,0,0,1-.307-.133.666.666,0,0,1-.216-.241A.713.713,0,0,1,145.61,67.069Zm.357,0a.421.421,0,0,0,.058.232.713.713,0,0,0,.149.166.586.586,0,0,0,.207.091,1.121,1.121,0,0,0,.232.033c.058,0,.133,0,.224-.008a1.5,1.5,0,0,0,.266-.05.934.934,0,0,0,.224-.108.252.252,0,0,0,.091-.2l-.008-1.079-.664.224c-.083.033-.174.066-.266.1a1.185,1.185,0,0,0-.249.133.667.667,0,0,0-.183.191A.43.43,0,0,0,145.967,67.069Z" transform="translate(-68.279 -63.609)"/><path class="b" d="M151.06,67.457c0-.041.017-.066.05-.066a.062.062,0,0,1,.041.008c.017.008.025.017.041.017a1.338,1.338,0,0,0,.282.124.813.813,0,0,0,.3.041.759.759,0,0,0,.415-.116.419.419,0,0,0,.174-.373.385.385,0,0,0-.033-.174.421.421,0,0,0-.075-.133.485.485,0,0,0-.116-.108c-.041-.033-.091-.066-.141-.1l-.407-.274c-.075-.05-.133-.091-.2-.141s-.108-.1-.158-.149a.644.644,0,0,1-.1-.183.7.7,0,0,1-.033-.241.857.857,0,0,1,.066-.34.582.582,0,0,1,.183-.241.728.728,0,0,1,.274-.149,1.164,1.164,0,0,1,.34-.05c.033,0,.091.008.166.017a1.163,1.163,0,0,1,.232.05,1.2,1.2,0,0,1,.207.083.151.151,0,0,1,.091.133V65.2a.062.062,0,0,1-.008.041.046.046,0,0,1-.041.025.133.133,0,0,1-.066-.025.463.463,0,0,1-.066-.041,1.557,1.557,0,0,0-.249-.1.935.935,0,0,0-.266-.041.646.646,0,0,0-.382.108.4.4,0,0,0-.166.348.418.418,0,0,0,.025.158.348.348,0,0,0,.075.116.571.571,0,0,0,.108.091c.041.033.083.058.133.091l.5.34a2.074,2.074,0,0,1,.2.149.887.887,0,0,1,.149.158.509.509,0,0,1,.091.191.7.7,0,0,1,.033.241.77.77,0,0,1-.075.348.828.828,0,0,1-.191.249.877.877,0,0,1-.29.149,1.179,1.179,0,0,1-.348.05,1.965,1.965,0,0,1-.357-.041.972.972,0,0,1-.34-.133.207.207,0,0,1-.058-.041c-.008-.008-.008-.033-.008-.066v-.108Z" transform="translate(-69.207 -63.607)"/><path class="b" d="M155.79,67.457c0-.041.017-.066.05-.066a.062.062,0,0,1,.041.008c.017.008.025.017.041.017a1.337,1.337,0,0,0,.282.124.813.813,0,0,0,.3.041.759.759,0,0,0,.415-.116.419.419,0,0,0,.174-.373.385.385,0,0,0-.033-.174.421.421,0,0,0-.075-.133.485.485,0,0,0-.116-.108c-.041-.033-.091-.066-.141-.1l-.407-.274c-.075-.05-.133-.091-.2-.141a1.378,1.378,0,0,1-.158-.149.644.644,0,0,1-.1-.183.7.7,0,0,1-.033-.241.857.857,0,0,1,.066-.34.582.582,0,0,1,.183-.241.728.728,0,0,1,.274-.149,1.164,1.164,0,0,1,.34-.05c.033,0,.091.008.166.017a1.163,1.163,0,0,1,.232.05,1.2,1.2,0,0,1,.207.083.151.151,0,0,1,.091.133V65.2a.062.062,0,0,1-.008.041.046.046,0,0,1-.041.025.132.132,0,0,1-.066-.025.462.462,0,0,1-.066-.041,1.558,1.558,0,0,0-.249-.1.935.935,0,0,0-.266-.041.646.646,0,0,0-.382.108.4.4,0,0,0-.166.348.418.418,0,0,0,.025.158.348.348,0,0,0,.075.116.571.571,0,0,0,.108.091c.041.033.083.058.133.091l.5.34a2.074,2.074,0,0,1,.2.149.888.888,0,0,1,.149.158.509.509,0,0,1,.091.191,1.053,1.053,0,0,1,.033.241.77.77,0,0,1-.075.348.714.714,0,0,1-.191.249.877.877,0,0,1-.29.149,1.179,1.179,0,0,1-.348.05,1.965,1.965,0,0,1-.357-.041.972.972,0,0,1-.34-.133.207.207,0,0,1-.058-.041c-.008-.008-.008-.033-.008-.066v-.108Z" transform="translate(-70.012 -63.607)"/><path class="b" d="M160.52,66.353a2.33,2.33,0,0,1,.075-.606,1.556,1.556,0,0,1,.224-.49,1.038,1.038,0,0,1,.407-.324,1.335,1.335,0,0,1,.606-.124,1.447,1.447,0,0,1,.6.116.982.982,0,0,1,.407.324,1.3,1.3,0,0,1,.232.481,2.265,2.265,0,0,1,.075.6,2.842,2.842,0,0,1-.066.614,1.366,1.366,0,0,1-.224.5,1.058,1.058,0,0,1-.407.332,1.372,1.372,0,0,1-.614.124,1.488,1.488,0,0,1-.606-.116,1.053,1.053,0,0,1-.407-.324,1.405,1.405,0,0,1-.232-.49A2.963,2.963,0,0,1,160.52,66.353Zm.348-.008a2.156,2.156,0,0,0,.05.465,1.307,1.307,0,0,0,.158.415.858.858,0,0,0,.3.3.9.9,0,0,0,.465.116.865.865,0,0,0,.456-.108.772.772,0,0,0,.29-.3,1.307,1.307,0,0,0,.158-.415,2.212,2.212,0,0,0,.05-.465,3.033,3.033,0,0,0-.041-.473,1.591,1.591,0,0,0-.149-.423.835.835,0,0,0-.29-.3.907.907,0,0,0-.473-.116.9.9,0,0,0-.465.116.858.858,0,0,0-.3.3,1.307,1.307,0,0,0-.158.415A2.29,2.29,0,0,0,160.868,66.345Z" transform="translate(-70.817 -63.607)"/><path class="b" d="M166.4,66.36a2.127,2.127,0,0,1,.091-.622,1.325,1.325,0,0,1,.274-.5,1.243,1.243,0,0,1,.448-.324,1.588,1.588,0,0,1,.614-.116c.041,0,.108,0,.207.008s.2.025.3.041a1.326,1.326,0,0,1,.274.091.183.183,0,0,1,.116.158v.1c0,.05-.025.075-.066.075a.105.105,0,0,1-.05-.008.181.181,0,0,1-.041-.025,1.919,1.919,0,0,0-.348-.141,1.214,1.214,0,0,0-.365-.05,1.1,1.1,0,0,0-.49.1.97.97,0,0,0-.348.282,1.163,1.163,0,0,0-.2.407,1.934,1.934,0,0,0-.066.49,1.853,1.853,0,0,0,.066.5,1.073,1.073,0,0,0,.207.4.941.941,0,0,0,.357.257,1.16,1.16,0,0,0,.5.091,1.444,1.444,0,0,0,.373-.05,1.847,1.847,0,0,0,.357-.133c.008,0,.017-.008.033-.017a.05.05,0,0,1,.033-.008.046.046,0,0,1,.042.025.118.118,0,0,1,.017.05v.108c0,.058-.041.1-.116.133a1.182,1.182,0,0,1-.274.083c-.108.017-.207.033-.3.041s-.166.008-.2.008a1.8,1.8,0,0,1-.614-.1,1.066,1.066,0,0,1-.448-.3,1.224,1.224,0,0,1-.274-.473A1.371,1.371,0,0,1,166.4,66.36Z" transform="translate(-71.818 -63.605)"/><path class="b" d="M171.92,63.712a.2.2,0,0,1,.232-.232.239.239,0,0,1,.191.058.292.292,0,0,1,.05.191.308.308,0,0,1-.05.191.239.239,0,0,1-.191.058c-.1,0-.166-.025-.191-.066A.4.4,0,0,1,171.92,63.712Zm.066.987a.066.066,0,0,1,.075-.075h.2a.09.09,0,0,1,.058.025.075.075,0,0,1,.025.058V67.5a.085.085,0,0,1-.083.083h-.2a.066.066,0,0,1-.075-.075Z" transform="translate(-72.758 -63.38)"/><path class="b" d="M175.34,67.069a.677.677,0,0,1,.075-.332.714.714,0,0,1,.207-.241,1.608,1.608,0,0,1,.282-.174c.108-.05.207-.091.315-.133l.73-.257a.5.5,0,0,0,.116-.058.229.229,0,0,0,.058-.075.309.309,0,0,0,.017-.1v-.133a.434.434,0,0,0-.174-.407.815.815,0,0,0-.448-.108,1.5,1.5,0,0,0-.448.066,1.979,1.979,0,0,0-.407.191c-.008.008-.025.017-.033.025a.05.05,0,0,1-.033.008.046.046,0,0,1-.041-.025.12.12,0,0,1-.017-.058c0-.025-.008-.05,0-.066v-.05c0-.05.041-.1.133-.141a1.411,1.411,0,0,1,.315-.1,2.545,2.545,0,0,1,.348-.058,2.005,2.005,0,0,1,.232-.025,2.036,2.036,0,0,1,.4.033.615.615,0,0,1,.34.191.528.528,0,0,1,.158.266,1.16,1.16,0,0,1,.033.307v2.116a.05.05,0,0,1-.025.05.4.4,0,0,1-.058.025c-.025,0-.05.008-.066,0h-.058q-.062,0-.075-.025a.118.118,0,0,1-.017-.05v-.05c0-.017-.017-.025-.041-.025-.008,0-.033.008-.066.017a.128.128,0,0,0-.058.025c-.124.05-.241.083-.348.116a1.3,1.3,0,0,1-.365.041,1.758,1.758,0,0,1-.365-.041.861.861,0,0,1-.307-.133.666.666,0,0,1-.216-.241A.8.8,0,0,1,175.34,67.069Zm.357,0a.421.421,0,0,0,.058.232.713.713,0,0,0,.149.166.586.586,0,0,0,.207.091,1.121,1.121,0,0,0,.232.033c.058,0,.133,0,.224-.008a1.5,1.5,0,0,0,.266-.05.934.934,0,0,0,.224-.108.252.252,0,0,0,.091-.2l-.008-1.079-.664.224c-.083.033-.174.066-.266.1a1.185,1.185,0,0,0-.249.133.667.667,0,0,0-.183.191A.43.43,0,0,0,175.7,67.069Z" transform="translate(-73.34 -63.609)"/><path class="b" d="M180.79,66.108a1.946,1.946,0,0,1,.091-.589,1.472,1.472,0,0,1,.266-.49,1.28,1.28,0,0,1,.44-.34,1.362,1.362,0,0,1,.589-.124,1.665,1.665,0,0,1,.348.041.921.921,0,0,1,.324.133.11.11,0,0,0,.058.025c.025,0,.041-.017.041-.05V63.453a.056.056,0,0,1,.033-.058l.075-.025h.166a.066.066,0,0,1,.075.075v4.033a.065.065,0,0,1-.025.058.154.154,0,0,1-.058.017h-.133c-.033,0-.058-.008-.066-.025a.105.105,0,0,1-.008-.05v-.05c0-.017-.017-.025-.041-.025a.062.062,0,0,0-.041.008c-.017.008-.025.017-.041.025a1.678,1.678,0,0,1-.73.166,1.451,1.451,0,0,1-.581-.116,1.263,1.263,0,0,1-.431-.315,1.321,1.321,0,0,1-.266-.473A2.4,2.4,0,0,1,180.79,66.108Zm.357-.033a1.837,1.837,0,0,0,.066.49,1.1,1.1,0,0,0,.2.407.921.921,0,0,0,.34.274,1.146,1.146,0,0,0,.49.1,2.072,2.072,0,0,0,.207-.017.736.736,0,0,0,.232-.058.562.562,0,0,0,.191-.116.269.269,0,0,0,.075-.2V65.2a.24.24,0,0,0-.083-.191.618.618,0,0,0-.191-.116,1.05,1.05,0,0,0-.232-.05c-.083-.008-.149-.017-.207-.017a1.1,1.1,0,0,0-.49.1.995.995,0,0,0-.539.664A2.262,2.262,0,0,0,181.147,66.075Z" transform="translate(-74.268 -63.362)"/><path class="b" d="M186.75,66.353a2.329,2.329,0,0,1,.075-.606,1.474,1.474,0,0,1,.224-.49,1.038,1.038,0,0,1,.407-.324,1.564,1.564,0,0,1,1.2-.008.982.982,0,0,1,.407.324,1.3,1.3,0,0,1,.232.481,2.265,2.265,0,0,1,.075.6,2.842,2.842,0,0,1-.066.614,1.242,1.242,0,0,1-.224.5,1.058,1.058,0,0,1-.407.332,1.372,1.372,0,0,1-.614.124,1.488,1.488,0,0,1-.606-.116,1.053,1.053,0,0,1-.407-.324,1.406,1.406,0,0,1-.232-.49A2.49,2.49,0,0,1,186.75,66.353Zm.348-.008a2.155,2.155,0,0,0,.05.465,1.307,1.307,0,0,0,.158.415.858.858,0,0,0,.3.3.9.9,0,0,0,.465.116.865.865,0,0,0,.456-.108.772.772,0,0,0,.29-.3,1.307,1.307,0,0,0,.158-.415,2.212,2.212,0,0,0,.05-.465,3.035,3.035,0,0,0-.041-.473,1.591,1.591,0,0,0-.149-.423.835.835,0,0,0-.29-.3.907.907,0,0,0-.473-.116.9.9,0,0,0-.465.116.858.858,0,0,0-.3.3,1.307,1.307,0,0,0-.158.415A2.29,2.29,0,0,0,187.1,66.345Z" transform="translate(-75.283 -63.607)"/><path class="b" d="M192.63,67.457c0-.041.017-.066.05-.066a.062.062,0,0,1,.041.008c.017.008.025.017.041.017a1.338,1.338,0,0,0,.282.124.813.813,0,0,0,.3.041.759.759,0,0,0,.415-.116.419.419,0,0,0,.174-.373.385.385,0,0,0-.033-.174.421.421,0,0,0-.075-.133.485.485,0,0,0-.116-.108c-.041-.033-.091-.066-.141-.1l-.407-.274c-.075-.05-.133-.091-.2-.141s-.108-.1-.158-.149a.644.644,0,0,1-.1-.183.7.7,0,0,1-.033-.241.857.857,0,0,1,.066-.34.582.582,0,0,1,.183-.241.728.728,0,0,1,.274-.149,1.164,1.164,0,0,1,.34-.05c.033,0,.091.008.166.017a1.162,1.162,0,0,1,.232.05,1.2,1.2,0,0,1,.207.083.151.151,0,0,1,.091.133V65.2a.062.062,0,0,1-.008.041.046.046,0,0,1-.041.025.132.132,0,0,1-.066-.025.462.462,0,0,1-.066-.041,1.557,1.557,0,0,0-.249-.1.935.935,0,0,0-.266-.041.646.646,0,0,0-.382.108.4.4,0,0,0-.166.348.418.418,0,0,0,.025.158.348.348,0,0,0,.075.116.571.571,0,0,0,.108.091c.041.033.083.058.133.091l.5.34a2.074,2.074,0,0,1,.2.149.888.888,0,0,1,.149.158.509.509,0,0,1,.091.191.7.7,0,0,1,.033.241.77.77,0,0,1-.075.348.828.828,0,0,1-.191.249.877.877,0,0,1-.29.149,1.179,1.179,0,0,1-.348.05,1.965,1.965,0,0,1-.357-.041.972.972,0,0,1-.34-.133.207.207,0,0,1-.058-.041c-.008-.008-.008-.033-.008-.066v-.108Z" transform="translate(-76.284 -63.607)"/></g><g transform="translate(0)"><path class="b" d="M52.41.7a.431.431,0,0,1,.108-.282A.332.332,0,0,1,52.8.29h3.767a14.886,14.886,0,0,1,2.639.224,5.051,5.051,0,0,1,2.348,1.145,5.076,5.076,0,0,1,1.5,1.991,6.479,6.479,0,0,1,.456,2.464A6.569,6.569,0,0,1,63.1,8.546a4.536,4.536,0,0,1-1.543,1.9,5.667,5.667,0,0,1-2.373,1.145,13.512,13.512,0,0,1-2.663.249H54.194v7.866a.307.307,0,0,1-.174.3,1.172,1.172,0,0,1-.4.108,4.337,4.337,0,0,1-.465,0c-.166-.008-.29-.017-.365-.017a.335.335,0,0,1-.382-.382V.7Zm4.165,9.617a13.481,13.481,0,0,0,2.058-.166,3.347,3.347,0,0,0,1.817-.88,3.873,3.873,0,0,0,.987-1.452,4.972,4.972,0,0,0,.3-1.751,4.855,4.855,0,0,0-.39-2.049A3.251,3.251,0,0,0,60.276,2.7a4.493,4.493,0,0,0-1.635-.7A9.5,9.5,0,0,0,56.584,1.8H54.2v8.521h2.373Z" transform="translate(-52.41 -0.049)"/><path class="b" d="M67.9,10.563a12.114,12.114,0,0,1,.714-4.215,9.719,9.719,0,0,1,2.033-3.336A9.326,9.326,0,0,1,73.849.8a10.523,10.523,0,0,1,4.2-.8c.2,0,.581.025,1.153.075a16.762,16.762,0,0,1,1.751.249A6.835,6.835,0,0,1,82.537.83c.465.216.7.481.7.8v.772a.955.955,0,0,1-.058.324.256.256,0,0,1-.266.174.4.4,0,0,1-.249-.075,1.451,1.451,0,0,0-.224-.133A7.879,7.879,0,0,0,80.3,1.809a9.247,9.247,0,0,0-2.323-.3,8.314,8.314,0,0,0-3.51.714A7.816,7.816,0,0,0,71.85,4.149a8.158,8.158,0,0,0-1.618,2.879,11.221,11.221,0,0,0-.548,3.535,9.355,9.355,0,0,0,.614,3.485,6.963,6.963,0,0,0,1.742,2.58,7.749,7.749,0,0,0,2.7,1.618,10.366,10.366,0,0,0,3.5.564c.141,0,.39-.008.747-.017a6.99,6.99,0,0,0,1.087-.108,3.6,3.6,0,0,0,.971-.282.593.593,0,0,0,.415-.548V11.65a.307.307,0,0,1,.174-.3,1.172,1.172,0,0,1,.4-.108,4.185,4.185,0,0,1,.456,0c.158.008.282.017.382.017a.344.344,0,0,1,.382.39V18.42a1.056,1.056,0,0,1-.73.946,6.625,6.625,0,0,1-1.676.548,16.567,16.567,0,0,1-1.867.266c-.614.05-1.037.075-1.278.075a10.92,10.92,0,0,1-3.991-.7A9.123,9.123,0,0,1,70.622,17.6a8.607,8.607,0,0,1-2-3.053A10.353,10.353,0,0,1,67.9,10.563Z" transform="translate(-55.047)"/><g transform="translate(0.017 23.177)"><path class="b" d="M67.45,41.754a9.292,9.292,0,0,1,.465-2.979,7.414,7.414,0,0,1,1.352-2.481,6.433,6.433,0,0,1,2.2-1.693,6.856,6.856,0,0,1,2.979-.622,8.067,8.067,0,0,1,1.742.191,5.6,5.6,0,0,1,1.626.664.526.526,0,0,0,.3.116c.141,0,.207-.091.207-.266V28.337a.307.307,0,0,1,.174-.3,1.006,1.006,0,0,1,.4-.1,4.186,4.186,0,0,1,.456,0c.158.008.282.017.382.017a.342.342,0,0,1,.382.382V46.6c0,1.651-2.572,2.63-5.767,2.63a6.829,6.829,0,0,1-2.921-.6,6.352,6.352,0,0,1-2.157-1.6,6.859,6.859,0,0,1-1.336-2.373A8.368,8.368,0,0,1,67.45,41.754Zm1.776-.149a9,9,0,0,0,.332,2.481,5.761,5.761,0,0,0,1,2.033,4.836,4.836,0,0,0,1.718,1.369,5.61,5.61,0,0,0,2.481.506,8.929,8.929,0,0,0,1.062-.075,4.854,4.854,0,0,0,1.162-.282,2.67,2.67,0,0,0,.938-.6,1.376,1.376,0,0,0,.39-1.012V37.182a1.23,1.23,0,0,0-.407-.962,2.746,2.746,0,0,0-.954-.564,5.783,5.783,0,0,0-1.162-.266,8.78,8.78,0,0,0-1.029-.075,5.855,5.855,0,0,0-2.481.49,4.667,4.667,0,0,0-1.718,1.336,5.773,5.773,0,0,0-1,1.991A8.692,8.692,0,0,0,69.226,41.6Z" transform="translate(-54.987 -27.932)"/><path class="b" d="M99.59,42.995a12.375,12.375,0,0,1,.357-3.053,6.885,6.885,0,0,1,1.145-2.464,5.539,5.539,0,0,1,2.049-1.651,7.924,7.924,0,0,1,6.057-.008,5.724,5.724,0,0,1,2.066,1.618,6.818,6.818,0,0,1,1.187,2.423,11.173,11.173,0,0,1,.39,3,13.627,13.627,0,0,1-.34,3.1,6.786,6.786,0,0,1-1.128,2.506,5.362,5.362,0,0,1-2.049,1.676,8.156,8.156,0,0,1-6.148.008,5.611,5.611,0,0,1-2.066-1.643,6.753,6.753,0,0,1-1.153-2.464A11.875,11.875,0,0,1,99.59,42.995Zm1.776-.025a11.746,11.746,0,0,0,.241,2.348,6.788,6.788,0,0,0,.788,2.091,4.267,4.267,0,0,0,1.494,1.51,4.456,4.456,0,0,0,2.348.581,4.368,4.368,0,0,0,2.3-.564,4.289,4.289,0,0,0,1.477-1.485,6.611,6.611,0,0,0,.788-2.074,11.544,11.544,0,0,0,.241-2.315,12.764,12.764,0,0,0-.224-2.373,6.8,6.8,0,0,0-.763-2.124,4.243,4.243,0,0,0-1.46-1.51,4.406,4.406,0,0,0-2.356-.581,4.534,4.534,0,0,0-2.348.564,4.386,4.386,0,0,0-1.51,1.485,6.08,6.08,0,0,0-.788,2.091A12.394,12.394,0,0,0,101.366,42.97Z" transform="translate(-60.46 -29.173)"/><path class="b" d="M167.09,42.995a12.375,12.375,0,0,1,.357-3.053,6.748,6.748,0,0,1,1.145-2.464,5.539,5.539,0,0,1,2.049-1.651,7.924,7.924,0,0,1,6.057-.008,5.725,5.725,0,0,1,2.066,1.618,6.818,6.818,0,0,1,1.187,2.423,11.177,11.177,0,0,1,.382,3,13.627,13.627,0,0,1-.34,3.1,6.786,6.786,0,0,1-1.128,2.506,5.362,5.362,0,0,1-2.049,1.676,8.156,8.156,0,0,1-6.148.008A5.611,5.611,0,0,1,168.6,48.5a6.753,6.753,0,0,1-1.153-2.464A12.26,12.26,0,0,1,167.09,42.995Zm1.784-.025a11.747,11.747,0,0,0,.241,2.348,6.788,6.788,0,0,0,.788,2.091,4.267,4.267,0,0,0,1.494,1.51,4.456,4.456,0,0,0,2.348.581,4.368,4.368,0,0,0,2.3-.564,4.289,4.289,0,0,0,1.477-1.485,6.611,6.611,0,0,0,.788-2.074,11.544,11.544,0,0,0,.241-2.315,12.763,12.763,0,0,0-.224-2.373,6.8,6.8,0,0,0-.763-2.124,4.243,4.243,0,0,0-1.46-1.51,4.406,4.406,0,0,0-2.356-.581,4.534,4.534,0,0,0-2.348.564,4.386,4.386,0,0,0-1.51,1.485,6.08,6.08,0,0,0-.788,2.091A12.394,12.394,0,0,0,168.874,42.97Z" transform="translate(-71.952 -29.173)"/><path class="b" d="M184.43,48.544c0-.216.091-.324.266-.324a.634.634,0,0,1,.224.041q.1.05.224.1a10.14,10.14,0,0,0,1.419.639,4.559,4.559,0,0,0,1.51.224,3.681,3.681,0,0,0,2.091-.6,2.115,2.115,0,0,0,.9-1.9,2.382,2.382,0,0,0-.149-.88,2.5,2.5,0,0,0-.39-.664,3.347,3.347,0,0,0-.581-.548c-.232-.166-.473-.34-.73-.523l-2.058-1.394c-.357-.241-.689-.473-.987-.714a5.134,5.134,0,0,1-.772-.755,2.917,2.917,0,0,1-.506-.921,3.78,3.78,0,0,1-.183-1.2,4.188,4.188,0,0,1,.324-1.709,3.5,3.5,0,0,1,.9-1.22,3.923,3.923,0,0,1,1.377-.738,5.785,5.785,0,0,1,1.726-.249,7.567,7.567,0,0,1,.846.075,8.621,8.621,0,0,1,1.17.241,3.937,3.937,0,0,1,1.037.431.766.766,0,0,1,.448.655v.531a.43.43,0,0,1-.058.224.228.228,0,0,1-.207.108.673.673,0,0,1-.34-.108c-.133-.066-.241-.133-.34-.191a7.8,7.8,0,0,0-1.261-.523,4.8,4.8,0,0,0-1.352-.191,3.448,3.448,0,0,0-1.933.548,1.955,1.955,0,0,0-.83,1.767,2.124,2.124,0,0,0,.133.8,2.064,2.064,0,0,0,.357.581,3.309,3.309,0,0,0,.531.473c.207.149.431.3.664.456l2.522,1.693c.373.257.714.506,1.012.738a3.975,3.975,0,0,1,.755.788,3.37,3.37,0,0,1,.473.946,4.148,4.148,0,0,1,.166,1.228,3.975,3.975,0,0,1-.357,1.734,3.521,3.521,0,0,1-.979,1.261,4.176,4.176,0,0,1-1.452.755,6.075,6.075,0,0,1-1.751.249,8.893,8.893,0,0,1-1.809-.207,4.908,4.908,0,0,1-1.693-.655,1.467,1.467,0,0,1-.3-.224.614.614,0,0,1-.058-.34v-.514Z" transform="translate(-74.905 -29.172)"/><path class="b" d="M145.32,47.283V39.218c0-2.041-.481-4.008-4.688-4.008a12.445,12.445,0,0,0-4.514.938c-.456.207-.655.44-.68.7a2.257,2.257,0,0,0,.091.888c.1.183.232.158.564-.033a9.791,9.791,0,0,1,2.049-.946,7.376,7.376,0,0,1,2.257-.324,4.251,4.251,0,0,1,2.273.548,2.253,2.253,0,0,1,.88,2.066v.664a1.446,1.446,0,0,1-.075.49.8.8,0,0,1-.282.373,2.453,2.453,0,0,1-.6.315l-3.659,1.3c-.539.2-1.07.415-1.593.655a6.805,6.805,0,0,0-1.427.863,4.074,4.074,0,0,0-1.029,1.2,3.405,3.405,0,0,0-.39,1.676,3.579,3.579,0,0,0,.415,1.792,3.647,3.647,0,0,0,1.1,1.2,4.487,4.487,0,0,0,1.56.68,7.814,7.814,0,0,0,1.834.207C144.407,50.477,145.32,48.693,145.32,47.283Zm-5.792,1.942a4.68,4.68,0,0,1-1.178-.149A3.159,3.159,0,0,1,137.3,48.6a2.593,2.593,0,0,1-.747-.813,2.263,2.263,0,0,1-.282-1.17,2.542,2.542,0,0,1,.357-1.377,3.449,3.449,0,0,1,.921-.979,5.754,5.754,0,0,1,1.27-.672c.465-.174.921-.348,1.352-.506l3.336-1.128.033,5.435a1.22,1.22,0,0,1-.465,1,3.3,3.3,0,0,1-1.1.564,5.959,5.959,0,0,1-1.319.241C140.2,49.208,139.827,49.224,139.528,49.224Z" transform="translate(-66.404 -29.172)"/><path class="b" d="M63.25,47.283V39.218c0-2.041-.481-4.008-4.688-4.008a12.445,12.445,0,0,0-4.514.938c-.456.207-.655.44-.68.7a2.258,2.258,0,0,0,.091.888c.1.183.232.158.564-.033a9.791,9.791,0,0,1,2.049-.946,7.376,7.376,0,0,1,2.257-.324,4.251,4.251,0,0,1,2.273.548,2.253,2.253,0,0,1,.88,2.066v.664a1.446,1.446,0,0,1-.075.49.8.8,0,0,1-.282.373,2.453,2.453,0,0,1-.6.315l-3.659,1.3c-.539.2-1.07.415-1.593.655a6.805,6.805,0,0,0-1.427.863,4.074,4.074,0,0,0-1.029,1.2,3.405,3.405,0,0,0-.39,1.676,3.579,3.579,0,0,0,.415,1.792,3.648,3.648,0,0,0,1.1,1.2,4.486,4.486,0,0,0,1.56.68,7.814,7.814,0,0,0,1.834.207C62.337,50.477,63.25,48.693,63.25,47.283Zm-5.792,1.942a4.68,4.68,0,0,1-1.178-.149,3.159,3.159,0,0,1-1.045-.473,2.593,2.593,0,0,1-.747-.813,2.263,2.263,0,0,1-.282-1.17,2.542,2.542,0,0,1,.357-1.377,3.45,3.45,0,0,1,.921-.979,5.754,5.754,0,0,1,1.269-.672c.465-.174.921-.348,1.352-.506l3.336-1.128.033,5.435a1.22,1.22,0,0,1-.465,1,3.3,3.3,0,0,1-1.1.564,5.959,5.959,0,0,1-1.319.241C58.13,49.208,57.757,49.224,57.458,49.224Z" transform="translate(-52.43 -29.172)"/><path class="b" d="M149.77,41.754a9.292,9.292,0,0,1,.465-2.979,7.414,7.414,0,0,1,1.352-2.481,6.433,6.433,0,0,1,2.2-1.693,6.856,6.856,0,0,1,2.979-.622,8.067,8.067,0,0,1,1.742.191,5.6,5.6,0,0,1,1.626.664.526.526,0,0,0,.3.116c.141,0,.207-.091.207-.266V28.337a.307.307,0,0,1,.174-.3,1.006,1.006,0,0,1,.4-.1,4.186,4.186,0,0,1,.456,0c.158.008.282.017.382.017a.342.342,0,0,1,.382.382V46.6c0,1.651-2.572,2.63-5.767,2.63a6.829,6.829,0,0,1-2.921-.6,6.352,6.352,0,0,1-2.157-1.6,6.859,6.859,0,0,1-1.336-2.373A8.368,8.368,0,0,1,149.77,41.754Zm1.776-.149a9,9,0,0,0,.332,2.481,5.761,5.761,0,0,0,1,2.033,4.836,4.836,0,0,0,1.718,1.369,5.611,5.611,0,0,0,2.481.506,8.929,8.929,0,0,0,1.062-.075,4.854,4.854,0,0,0,1.162-.282,2.67,2.67,0,0,0,.938-.6,1.376,1.376,0,0,0,.39-1.012V37.182a1.23,1.23,0,0,0-.407-.962,2.746,2.746,0,0,0-.954-.564,5.783,5.783,0,0,0-1.162-.266,8.78,8.78,0,0,0-1.029-.075,5.855,5.855,0,0,0-2.481.49,4.668,4.668,0,0,0-1.718,1.336,5.774,5.774,0,0,0-1,1.991A9,9,0,0,0,151.546,41.6Z" transform="translate(-69.003 -27.932)"/><path class="b" d="M90.86,48.443,86.471,35.98c-.058-.174-.158-.34-.373-.34H84.67c-.2,0-.224.141-.166.315.017.033,5.045,13.923,5.045,13.923.058.158.116.315.166.456s.183.224.4.224h1.128c.216,0,.357-.058.415-.174a2.918,2.918,0,0,0,.174-.473L96.726,36a.261.261,0,0,0-.249-.348H95.4a.262.262,0,0,0-.249.174Z" transform="translate(-57.886 -29.245)"/><path class="b" d="M129.805,35.461h-.755c-.158,0-.249.041-.29.116a.567.567,0,0,0-.058.266,2.385,2.385,0,0,1-.017.266.114.114,0,0,1-.133.116.778.778,0,0,1-.282-.058,1.828,1.828,0,0,1-.249-.116,15.806,15.806,0,0,0-1.693-.606,6.431,6.431,0,0,0-1.784-.224,6.7,6.7,0,0,0-2.987.639,6.633,6.633,0,0,0-2.191,1.709,7.374,7.374,0,0,0-1.352,2.489,9.67,9.67,0,0,0-.465,3,8.559,8.559,0,0,0,.465,2.863,6.98,6.98,0,0,0,1.328,2.356,6.3,6.3,0,0,0,2.124,1.6,6.654,6.654,0,0,0,2.871.6,7.043,7.043,0,0,0,1.859-.224,9.7,9.7,0,0,0,1.767-.7c.041-.017.083-.041.116-.058a.356.356,0,0,1,.116-.033.153.153,0,0,1,.174.133,1.473,1.473,0,0,1,.033.249v1.809a3.667,3.667,0,0,1-.415,1.809,3.374,3.374,0,0,1-1.1,1.187,4.725,4.725,0,0,1-1.568.639,8.868,8.868,0,0,1-1.834.191,7.054,7.054,0,0,1-2.058-.3,13.638,13.638,0,0,1-1.933-.78.171.171,0,0,0-.249.158v.73a.863.863,0,0,0,.564.8,8.115,8.115,0,0,0,1.5.407,13.494,13.494,0,0,0,2.356.224,10.7,10.7,0,0,0,2.522-.3,6.258,6.258,0,0,0,2.282-1.07,3.977,3.977,0,0,0,.946-1.012,4.775,4.775,0,0,0,.514-1.128,5.564,5.564,0,0,0,.216-1.261c.033-.448.041-.9.041-1.377V35.842A.381.381,0,0,0,129.805,35.461ZM128.411,47.3a1.23,1.23,0,0,1-.407.962,2.916,2.916,0,0,1-.954.581,5.3,5.3,0,0,1-1.162.3,7.643,7.643,0,0,1-1.029.091,5.313,5.313,0,0,1-3.883-1.6,5.113,5.113,0,0,1-1.311-2.149,9.2,9.2,0,0,1-.332-2.506,9.055,9.055,0,0,1,.332-2.464,5.9,5.9,0,0,1,1.012-2.074,5.046,5.046,0,0,1,1.718-1.427,5.3,5.3,0,0,1,2.464-.531,9.081,9.081,0,0,1,1.211.091,3.748,3.748,0,0,1,1.153.34,2.362,2.362,0,0,1,.855.714,1.881,1.881,0,0,1,.34,1.17v8.5Z" transform="translate(-63.518 -29.173)"/></g></g></g></g></svg>